<svg xmlns="http://www.w3.org/2000/svg" width="182" height="168" viewBox="0 0 182 168" shape-rendering="crispEdges"><rect x="28" y="0" width="14" height="14" fill="#006400"/><rect x="42" y="0" width="14" height="14" fill="#006400"/><rect x="56" y="0" width="14" height="14" fill="#006400"/><rect x="112" y="0" width="14" height="14" fill="#006400"/><rect x="126" y="0" width="14" height="14" fill="#006400"/><rect x="140" y="0" width="14" height="14" fill="#006400"/><rect x="14" y="14" width="14" height="14" fill="#006400"/><rect x="28" y="14" width="14" height="14" fill="#228B22"/><rect x="42" y="14" width="14" height="14" fill="#228B22"/><rect x="56" y="14" width="14" height="14" fill="#006400"/><rect x="70" y="14" width="14" height="14" fill="#006400"/><rect x="84" y="14" width="14" height="14" fill="#006400"/><rect x="98" y="14" width="14" height="14" fill="#228B22"/><rect x="112" y="14" width="14" height="14" fill="#228B22"/><rect x="126" y="14" width="14" height="14" fill="#228B22"/><rect x="140" y="14" width="14" height="14" fill="#006400"/><rect x="0" y="28" width="14" height="14" fill="#006400"/><rect x="14" y="28" width="14" height="14" fill="#228B22"/><rect x="28" y="28" width="14" height="14" fill="#228B22"/><rect x="42" y="28" width="14" height="14" fill="#228B22"/><rect x="56" y="28" width="14" height="14" fill="#228B22"/><rect x="70" y="28" width="14" height="14" fill="#228B22"/><rect x="84" y="28" width="14" height="14" fill="#228B22"/><rect x="98" y="28" width="14" height="14" fill="#228B22"/><rect x="112" y="28" width="14" height="14" fill="#228B22"/><rect x="126" y="28" width="14" height="14" fill="#228B22"/><rect x="140" y="28" width="14" height="14" fill="#228B22"/><rect x="154" y="28" width="14" height="14" fill="#006400"/><rect x="0" y="42" width="14" height="14" fill="#228B22"/><rect x="14" y="42" width="14" height="14" fill="#228B22"/><rect x="28" y="42" width="14" height="14" fill="#228B22"/><rect x="42" y="42" width="14" height="14" fill="#FFD700"/><rect x="56" y="42" width="14" height="14" fill="#228B22"/><rect x="70" y="42" width="14" height="14" fill="#228B22"/><rect x="84" y="42" width="14" height="14" fill="#228B22"/><rect x="98" y="42" width="14" height="14" fill="#FFD700"/><rect x="112" y="42" width="14" height="14" fill="#228B22"/><rect x="126" y="42" width="14" height="14" fill="#228B22"/><rect x="140" y="42" width="14" height="14" fill="#228B22"/><rect x="0" y="56" width="14" height="14" fill="#228B22"/><rect x="14" y="56" width="14" height="14" fill="#228B22"/><rect x="28" y="56" width="14" height="14" fill="#228B22"/><rect x="42" y="56" width="14" height="14" fill="#FF0000"/><rect x="56" y="56" width="14" height="14" fill="#228B22"/><rect x="70" y="56" width="14" height="14" fill="#228B22"/><rect x="84" y="56" width="14" height="14" fill="#228B22"/><rect x="98" y="56" width="14" height="14" fill="#228B22"/><rect x="112" y="56" width="14" height="14" fill="#FF0000"/><rect x="126" y="56" width="14" height="14" fill="#228B22"/><rect x="140" y="56" width="14" height="14" fill="#228B22"/><rect x="154" y="56" width="14" height="14" fill="#228B22"/><rect x="0" y="70" width="14" height="14" fill="#228B22"/><rect x="14" y="70" width="14" height="14" fill="#228B22"/><rect x="28" y="70" width="14" height="14" fill="#228B22"/><rect x="42" y="70" width="14" height="14" fill="#FFD700"/><rect x="56" y="70" width="14" height="14" fill="#FFD700"/><rect x="70" y="70" width="14" height="14" fill="#FFD700"/><rect x="84" y="70" width="14" height="14" fill="#FFD700"/><rect x="98" y="70" width="14" height="14" fill="#FFD700"/><rect x="112" y="70" width="14" height="14" fill="#FFD700"/><rect x="126" y="70" width="14" height="14" fill="#228B22"/><rect x="140" y="70" width="14" height="14" fill="#228B22"/><rect x="154" y="70" width="14" height="14" fill="#228B22"/><rect x="14" y="84" width="14" height="14" fill="#228B22"/><rect x="28" y="84" width="14" height="14" fill="#228B22"/><rect x="42" y="84" width="14" height="14" fill="#228B22"/><rect x="56" y="84" width="14" height="14" fill="#228B22"/><rect x="70" y="84" width="14" height="14" fill="#228B22"/><rect x="84" y="84" width="14" height="14" fill="#228B22"/><rect x="98" y="84" width="14" height="14" fill="#228B22"/><rect x="112" y="84" width="14" height="14" fill="#228B22"/><rect x="126" y="84" width="14" height="14" fill="#228B22"/><rect x="140" y="84" width="14" height="14" fill="#228B22"/><rect x="28" y="98" width="14" height="14" fill="#228B22"/><rect x="42" y="98" width="14" height="14" fill="#228B22"/><rect x="56" y="98" width="14" height="14" fill="#228B22"/><rect x="70" y="98" width="14" height="14" fill="#228B22"/><rect x="84" y="98" width="14" height="14" fill="#228B22"/><rect x="98" y="98" width="14" height="14" fill="#228B22"/><rect x="112" y="98" width="14" height="14" fill="#228B22"/><rect x="126" y="98" width="14" height="14" fill="#228B22"/><rect x="140" y="98" width="14" height="14" fill="#228B22"/><rect x="28" y="112" width="14" height="14" fill="#228B22"/><rect x="42" y="112" width="14" height="14" fill="#228B22"/><rect x="56" y="112" width="14" height="14" fill="#FFD700"/><rect x="70" y="112" width="14" height="14" fill="#FFD700"/><rect x="84" y="112" width="14" height="14" fill="#FFD700"/><rect x="98" y="112" width="14" height="14" fill="#FFD700"/><rect x="112" y="112" width="14" height="14" fill="#FFD700"/><rect x="126" y="112" width="14" height="14" fill="#228B22"/><rect x="140" y="112" width="14" height="14" fill="#228B22"/><rect x="14" y="126" width="14" height="14" fill="#228B22"/><rect x="28" y="126" width="14" height="14" fill="#228B22"/><rect x="56" y="126" width="14" height="14" fill="#FF4500"/><rect x="70" y="126" width="14" height="14" fill="#FF8C00"/><rect x="84" y="126" width="14" height="14" fill="#FF4500"/><rect x="98" y="126" width="14" height="14" fill="#FF8C00"/><rect x="112" y="126" width="14" height="14" fill="#FF4500"/><rect x="126" y="126" width="14" height="14" fill="#FF8C00"/><rect x="154" y="126" width="14" height="14" fill="#228B22"/><rect x="168" y="126" width="14" height="14" fill="#228B22"/><rect x="0" y="140" width="14" height="14" fill="#228B22"/><rect x="14" y="140" width="14" height="14" fill="#228B22"/><rect x="56" y="140" width="14" height="14" fill="#FF4500"/><rect x="70" y="140" width="14" height="14" fill="#FF8C00"/><rect x="84" y="140" width="14" height="14" fill="#FF4500"/><rect x="98" y="140" width="14" height="14" fill="#FF8C00"/><rect x="112" y="140" width="14" height="14" fill="#FF4500"/><rect x="126" y="140" width="14" height="14" fill="#FF8C00"/><rect x="168" y="140" width="14" height="14" fill="#228B22"/><rect x="70" y="154" width="14" height="14" fill="#FF4500"/><rect x="84" y="154" width="14" height="14" fill="#FF8C00"/><rect x="98" y="154" width="14" height="14" fill="#FF4500"/><rect x="112" y="154" width="14" height="14" fill="#FF8C00"/></svg>